<svg xmlns="http://www.w3.org/2000/svg" xmlns:xlink="http://www.w3.org/1999/xlink" width="128" height="128"><defs><filter id="b" width="1.039" height="1.039" x="-.02" y="-.02" style="color-interpolation-filters:sRGB"><feGaussianBlur stdDeviation="3.713"/></filter><filter id="d" width="1.162" height="1.14" x="-.081" y="-.07" style="color-interpolation-filters:sRGB"><feGaussianBlur stdDeviation="10.187"/></filter><filter id="f" width="1.026" height="1.022" x="-.013" y="-.011" style="color-interpolation-filters:sRGB"><feGaussianBlur stdDeviation="1.629"/></filter><linearGradient id="a"><stop offset="0" style="stop-color:#b733e1;stop-opacity:1"/><stop offset="1" style="stop-color:#7bffa5;stop-opacity:1"/></linearGradient><linearGradient xlink:href="#a" id="c" x1="98.546" x2="413.454" y1="74.87" y2="437.13" gradientUnits="userSpaceOnUse"/><clipPath id="e" clipPathUnits="userSpaceOnUse"><path d="M190.129 81.057c-10.563.135-20.835 6.722-25.088 16.44-2.038 4.465-2.59 9.452-2.389 14.314v153.3c-19.702-2.77-40.556 2.941-55.8 15.804-9.846 8.293-17.055 19.86-19.465 32.562-2.584 12.973-.424 26.852 6.126 38.36 7.473 13.346 20.142 23.472 34.482 28.6 19.302 6.988 41.66 5.283 59.495-4.97 13.151-7.48 23.78-19.722 28.335-34.246 2.044-6.402 2.791-13.165 2.585-19.869l.008-175.913 113.893 31.15V311.41c-19.872-2.834-40.931 2.978-56.235 16.046-9.642 8.245-16.71 19.64-19.127 32.148-2.58 12.836-.543 26.571 5.827 38.028 7.342 13.395 19.9 23.627 34.176 28.873 19.403 7.217 41.99 5.605 59.99-4.708 12.53-7.11 22.776-18.51 27.688-32.13 2.557-6.997 3.55-14.5 3.318-21.93.043-71.096.094-142.193.113-213.29-.209-9.81-6.093-19.25-14.795-23.78-4.364-2.279-9.27-3.117-13.948-4.507-54.138-14.806-108.273-29.623-162.42-44.396a27.8 27.8 0 0 0-6.769-.707" style="fill:#fff;fill-opacity:1;stroke-width:55;paint-order:stroke fill markers"/></clipPath></defs><g style="display:inline" transform="translate(-4.267 -4.267)scale(.26667)"><circle cx="256" cy="256" r="240" style="opacity:1;fill:gray;fill-opacity:1"/><circle cx="256" cy="256" r="226" style="opacity:1;fill:#fff;fill-opacity:.325;filter:url(#b)"/><circle cx="256" cy="256" r="130" style="fill:#555"/><circle cx="256" cy="256" r="58" style="fill:#bbb"/><circle cx="256" cy="256" r="240" style="opacity:1;mix-blend-mode:multiply;fill:url(#c);fill-opacity:1"/></g><path d="M190.129 81.057c-10.563.135-20.835 6.722-25.088 16.44-2.038 4.465-2.59 9.452-2.389 14.314v153.3c-19.702-2.77-40.556 2.941-55.8 15.804-9.846 8.293-17.055 19.86-19.465 32.562-2.584 12.973-.424 26.852 6.126 38.36 7.473 13.346 20.142 23.472 34.482 28.6 19.302 6.988 41.66 5.283 59.495-4.97 13.151-7.48 23.78-19.722 28.335-34.246 2.044-6.402 2.791-13.165 2.585-19.869l.008-175.913 113.893 31.15V311.41c-19.872-2.834-40.931 2.978-56.235 16.046-9.642 8.245-16.71 19.64-19.127 32.148-2.58 12.836-.543 26.571 5.827 38.028 7.342 13.395 19.9 23.627 34.176 28.873 19.403 7.217 41.99 5.605 59.99-4.708 12.53-7.11 22.776-18.51 27.688-32.13 2.557-6.997 3.55-14.5 3.318-21.93.043-71.096.094-142.193.113-213.29-.209-9.81-6.093-19.25-14.795-23.78-4.364-2.279-9.27-3.117-13.948-4.507-54.138-14.806-108.273-29.623-162.42-44.396a27.8 27.8 0 0 0-6.769-.707" style="display:inline;fill:#3b004a;fill-opacity:1;stroke:none;stroke-width:35.1;stroke-dasharray:none;stroke-opacity:1;paint-order:stroke fill markers;filter:url(#d)" transform="translate(-4.468 -4.204)scale(.26667)"/><path d="M46.233 17.41c-2.817.037-5.556 1.793-6.69 4.385-.544 1.19-.691 2.52-.637 3.817v40.88c-5.254-.739-10.815.784-14.88 4.214-2.626 2.212-4.549 5.297-5.191 8.684-.69 3.459-.113 7.16 1.633 10.229 1.993 3.559 5.372 6.26 9.196 7.627 5.147 1.863 11.109 1.408 15.865-1.326 3.507-1.994 6.341-5.259 7.556-9.132.545-1.707.744-3.51.69-5.298l.001-46.91 30.372 8.306v35.952c-5.3-.755-10.915.794-14.996 4.28-2.571 2.198-4.456 5.237-5.1 8.572-.689 3.423-.145 7.086 1.553 10.14 1.958 3.573 5.307 6.302 9.114 7.7 5.174 1.925 11.197 1.495 15.997-1.255 3.341-1.896 6.074-4.936 7.384-8.568.681-1.866.946-3.867.884-5.848.012-18.96.025-37.918.03-56.877-.055-2.616-1.624-5.134-3.945-6.342-1.164-.607-2.472-.831-3.72-1.201-14.436-3.949-28.872-7.9-43.311-11.84a7.4 7.4 0 0 0-1.805-.188" style="display:inline;fill:#000;fill-opacity:1;stroke:none;stroke-width:9.36002;stroke-dasharray:none;stroke-opacity:1;paint-order:stroke fill markers"/><path d="M190.129 81.057c-10.563.135-20.835 6.722-25.088 16.44-2.038 4.465-2.59 9.452-2.389 14.314v153.3c-19.702-2.77-40.556 2.941-55.8 15.804-9.846 8.293-17.055 19.86-19.465 32.562-2.584 12.973-.424 26.852 6.126 38.36 7.473 13.346 20.142 23.472 34.482 28.6 19.302 6.988 41.66 5.283 59.495-4.97 13.151-7.48 23.78-19.722 28.335-34.246 2.044-6.402 2.791-13.165 2.585-19.869l.008-175.913 113.893 31.15V311.41c-19.872-2.834-40.931 2.978-56.235 16.046-9.642 8.245-16.71 19.64-19.127 32.148-2.58 12.836-.543 26.571 5.827 38.028 7.342 13.395 19.9 23.627 34.176 28.873 19.403 7.217 41.99 5.605 59.99-4.708 12.53-7.11 22.776-18.51 27.688-32.13 2.557-6.997 3.55-14.5 3.318-21.93.043-71.096.094-142.193.113-213.29-.209-9.81-6.093-19.25-14.795-23.78-4.364-2.279-9.27-3.117-13.948-4.507-54.138-14.806-108.273-29.623-162.42-44.396a27.8 27.8 0 0 0-6.769-.707" clip-path="url(#e)" style="fill:#fff;fill-opacity:1;stroke-width:55;paint-order:stroke fill markers;filter:url(#f)" transform="translate(-4.468 -4.204)scale(.26667)"/></svg>